<?xml version="1.0" standalone="no"?><!DOCTYPE svg PUBLIC "-//W3C//DTD SVG 1.1//EN" "http://www.w3.org/Graphics/SVG/1.1/DTD/svg11.dtd"><svg t="1652946161031" class="icon" viewBox="0 0 1024 1024" version="1.1" xmlns="http://www.w3.org/2000/svg" p-id="6525" xmlns:xlink="http://www.w3.org/1999/xlink" width="200" height="200"><defs><style type="text/css">@font-face { font-family: feedback-iconfont; src: url("//at.alicdn.com/t/font_1031158_u69w8yhxdu.woff2?t=1630033759944") format("woff2"), url("//at.alicdn.com/t/font_1031158_u69w8yhxdu.woff?t=1630033759944") format("woff"), url("//at.alicdn.com/t/font_1031158_u69w8yhxdu.ttf?t=1630033759944") format("truetype"); }
</style></defs><path d="M886.272 288.768L819.2 209.92l-57.344-63.488A126.976 126.976 0 0 0 665.6 102.4H281.088A127.488 127.488 0 0 0 153.6 229.888v594.944a127.488 127.488 0 0 0 127.488 127.488h512a127.488 127.488 0 0 0 127.488-127.488V373.248a125.952 125.952 0 0 0-34.304-84.48z m-210.944 265.216l-137.728 169.984a41.984 41.984 0 0 1-32.256 15.872 43.008 43.008 0 0 1-32.768-14.336l-74.752-84.992A42.496 42.496 0 0 1 460.8 584.192l41.472 47.104 107.008-130.56a42.496 42.496 0 1 1 66.048 51.2z m30.72-187.904a51.2 51.2 0 0 1-51.2-51.2v-153.6l192 204.8z" p-id="6526"></path></svg>