<?xml version="1.0" standalone="no"?><!DOCTYPE svg PUBLIC "-//W3C//DTD SVG 1.1//EN" "http://www.w3.org/Graphics/SVG/1.1/DTD/svg11.dtd"><svg t="1652946147423" class="icon" viewBox="0 0 1024 1024" version="1.1" xmlns="http://www.w3.org/2000/svg" p-id="5652" xmlns:xlink="http://www.w3.org/1999/xlink" width="200" height="200"><defs><style type="text/css">@font-face { font-family: feedback-iconfont; src: url("//at.alicdn.com/t/font_1031158_u69w8yhxdu.woff2?t=1630033759944") format("woff2"), url("//at.alicdn.com/t/font_1031158_u69w8yhxdu.woff?t=1630033759944") format("woff"), url("//at.alicdn.com/t/font_1031158_u69w8yhxdu.ttf?t=1630033759944") format("truetype"); }
</style></defs><path d="M91.085326 309.391917 201.65027 419.956861 91.085326 530.541248Z" p-id="5653"></path><path d="M254.324851 419.718431l-163.238502 163.217012L91.086349 943.005476l860.370596 0L951.456945 419.718431 254.324851 419.718431zM770.81818 771.897766 292.918767 771.897766l0-55.284007 477.900436 0L770.819203 771.897766zM770.81818 644.901627 292.918767 644.901627l0-55.28196 477.900436 0L770.819203 644.901627zM938.822209 263.099684 905.423608 80.995547 72.543055 233.819882l159.013279 159.033745L938.822209 263.099684zM847.294816 125.389551l47.628669 82.189743 5.303785 28.87048-101.637638 18.650741-63.282152-109.16404L847.294816 125.389551zM618.447168 167.412559l63.259639 109.120038-111.98836 20.547947-63.282152-109.141528L618.447168 167.412559zM389.598497 209.370076l63.259639 109.16404-111.98836 20.526458-63.259639-109.121062L389.598497 209.370076z" p-id="5654"></path></svg>